<svg xmlns="http://www.w3.org/2000/svg" version="1.1" xmlns:xlink="http://www.w3.org/1999/xlink" xmlns:svgjs="http://svgjs.dev/svgjs" width="1500" height="939" viewBox="0 0 1500 939"><g transform="matrix(1,0,0,1,-0.9090909090909918,-1.5145161290323017)"><svg viewBox="0 0 396 248" data-background-color="#ffffff" preserveAspectRatio="xMidYMid meet" height="939" width="1500" xmlns="http://www.w3.org/2000/svg" xmlns:xlink="http://www.w3.org/1999/xlink"><g id="tight-bounds" transform="matrix(1,0,0,1,0.2400000000000091,0.4000000000000057)"><svg viewBox="0 0 395.52 247.2" height="247.2" width="395.52"><g><svg></svg></g><g><svg viewBox="0 0 395.52 247.2" height="247.2" width="395.52"><g transform="matrix(1,0,0,1,75.54432,91.76324609255286)"><svg viewBox="0 0 244.43135999999998 63.673507814894265" height="63.673507814894265" width="244.43135999999998"><g><svg viewBox="0 0 244.43135999999998 63.673507814894265" height="63.673507814894265" width="244.43135999999998"><g><svg viewBox="0 0 244.43135999999998 63.673507814894265" height="63.673507814894265" width="244.43135999999998"><g><svg viewBox="0 0 244.43135999999998 63.673507814894265" height="63.673507814894265" width="244.43135999999998"><g id="textblocktransform"><svg viewBox="0 0 244.43135999999998 63.673507814894265" height="63.673507814894265" width="244.43135999999998" id="textblock"><g><svg viewBox="0 0 244.43135999999998 63.673507814894265" height="63.673507814894265" width="244.43135999999998"><g transform="matrix(1,0,0,1,0,0)"><svg width="244.43135999999998" viewBox="2.35 -33.13 163.14000000000001 42.510000000000005" height="63.673507814894265" data-palette-color="#6575a8"><path d="M11.35 0.53L11.35 0.53Q6.95 0.53 4.65-2.2 2.35-4.93 2.35-10.15L2.35-10.15 2.35-14.18Q2.35-19.43 4.67-22.19 7-24.95 11.53-24.95L11.53-24.95Q13.78-24.95 15.43-24.19 17.07-23.43 18.1-22.05 19.13-20.68 19.48-18.8L19.48-18.8 20.8-18.8 19.6-15.08Q19.53-17.23 18.64-18.69 17.75-20.15 16.24-20.9 14.73-21.65 12.78-21.65L12.78-21.65Q9.68-21.65 8.04-19.85 6.4-18.05 6.4-14.55L6.4-14.55 6.4-9.9Q6.4-6.45 8.04-4.65 9.68-2.85 12.78-2.85L12.78-2.85Q14.63-2.85 16.05-3.56 17.48-4.28 18.41-5.54 19.35-6.8 19.7-8.4L19.7-8.4 20.7-5.5 19.5-5.5Q19.15-3.85 18.16-2.48 17.18-1.1 15.51-0.29 13.85 0.53 11.35 0.53ZM23.55 0L19.5 0 19.68-5.9 19.6-7.2 19.6-17.4 19.63-18.25 19.53-25.18 19.53-33.13 23.55-33.13 23.55 0ZM40.4 0.55L40.4 0.55Q34.82 0.55 32-2.18 29.17-4.9 29.17-9.98L29.17-9.98 29.17-14.33Q29.17-19.48 31.8-22.26 34.42-25.05 39.47-25.05L39.47-25.05Q42.87-25.05 45.15-23.79 47.42-22.53 48.57-20.2 49.72-17.88 49.72-14.65L49.72-14.65 49.72-13.75Q49.72-12.95 49.66-12.15 49.6-11.35 49.5-10.58L49.5-10.58 45.77-10.58Q45.82-11.78 45.84-12.85 45.85-13.93 45.85-14.83L45.85-14.83Q45.85-17.05 45.14-18.59 44.42-20.13 43.01-20.94 41.6-21.75 39.47-21.75L39.47-21.75Q36.32-21.75 34.75-19.93 33.17-18.1 33.17-14.7L33.17-14.7 33.17-12.38 33.2-11.88 33.2-9.55Q33.2-8.03 33.65-6.8 34.1-5.58 35.06-4.69 36.02-3.8 37.51-3.34 39-2.88 41.05-2.88L41.05-2.88Q43.42-2.88 45.47-3.5 47.52-4.13 49.32-5.2L49.32-5.2 48.95-1.7Q47.32-0.68 45.17-0.06 43.02 0.55 40.4 0.55ZM48.65-10.58L31.3-10.58 31.3-13.63 48.65-13.63 48.65-10.58ZM63.87-2.78L64.47-2.78 71.22-24.4 75.42-24.4 67.5 0 60.85 0 52.92-24.4 57.12-24.4 63.87-2.78ZM91.84 0.53L91.84 0.53Q89.59 0.53 87.93-0.23 86.27-0.98 85.24-2.38 84.22-3.78 83.87-5.63L83.87-5.63 82.52-5.63 83.74-9.43Q83.87-7.23 84.78-5.76 85.69-4.3 87.22-3.58 88.74-2.85 90.67-2.85L90.67-2.85Q93.72-2.85 95.33-4.65 96.94-6.45 96.94-10L96.94-10 96.94-14.58Q96.94-18.05 95.32-19.85 93.69-21.65 90.59-21.65L90.59-21.65Q88.74-21.65 87.32-20.93 85.89-20.2 84.96-18.95 84.02-17.7 83.67-16.1L83.67-16.1 82.74-18.93 83.89-18.93Q84.27-20.6 85.23-21.96 86.19-23.33 87.87-24.14 89.54-24.95 92.02-24.95L92.02-24.95Q96.42-24.95 98.72-22.21 101.02-19.48 101.02-14.28L101.02-14.28 101.02-10.23Q101.02-4.98 98.68-2.23 96.34 0.53 91.84 0.53ZM83.87 0L79.82 0 79.82-33.13 83.84-33.13 83.84-25.18 83.72-18.18 83.74-17.4 83.74-7.2 83.69-5.9 83.87 0ZM110.82 0L106.79 0 106.79-33.13 110.82-33.13 110.82 0ZM127.24 0.63L127.24 0.63Q121.99 0.63 119.28-2.21 116.56-5.05 116.56-10.38L116.56-10.38 116.56-14.1Q116.56-19.4 119.29-22.23 122.01-25.05 127.24-25.05L127.24-25.05Q132.49-25.05 135.2-22.23 137.91-19.4 137.91-14.1L137.91-14.1 137.91-10.38Q137.91-5.05 135.2-2.21 132.49 0.63 127.24 0.63ZM127.24-2.68L127.24-2.68Q130.49-2.68 132.18-4.6 133.86-6.53 133.86-10.15L133.86-10.15 133.86-14.33Q133.86-17.93 132.18-19.84 130.49-21.75 127.24-21.75L127.24-21.75Q124.01-21.75 122.31-19.84 120.61-17.93 120.61-14.33L120.61-14.33 120.61-10.15Q120.61-6.53 122.31-4.6 124.01-2.68 127.24-2.68ZM153.04-7.3L153.04-7.3Q148.06-7.3 145.4-9.47 142.74-11.65 142.74-15.7L142.74-15.7 142.74-16.32Q142.74-18.85 143.77-20.73 144.81-22.6 147.09-23.66 149.36-24.73 153.04-24.83L153.04-24.83 165.49-25.23 165.49-22.03 158.14-22.28 158.11-22.1Q159.84-21.75 160.94-20.9 162.04-20.05 162.57-18.78 163.11-17.5 163.11-15.8L163.11-15.8 163.11-15.25Q163.11-11.38 160.56-9.34 158.01-7.3 153.04-7.3ZM152.86 6.15L152.86 6.15 153.44 6.15Q155.69 6.15 157.3 5.81 158.91 5.48 159.79 4.75 160.66 4.03 160.66 2.83L160.66 2.83 160.66 2.73Q160.66 1.33 159.65 0.59 158.64-0.15 156.19-0.38L156.19-0.38 149.29-1 150.44-1.05Q149.04-0.85 147.97-0.4 146.91 0.05 146.31 0.79 145.71 1.53 145.71 2.63L145.71 2.63 145.71 2.68Q145.71 3.95 146.59 4.73 147.46 5.5 149.06 5.83 150.66 6.15 152.86 6.15ZM153.36 9.38L152.64 9.38Q149.34 9.38 146.95 8.81 144.56 8.25 143.25 6.99 141.94 5.73 141.94 3.6L141.94 3.6 141.94 3.5Q141.94 2 142.65 1 143.36 0 144.57-0.58 145.79-1.15 147.29-1.35L147.29-1.35 147.26-1.5Q145.21-1.85 144.24-2.71 143.26-3.58 143.26-4.95L143.26-4.95 143.26-4.98Q143.26-5.93 143.7-6.6 144.14-7.28 145.02-7.68 145.91-8.08 147.29-8.18L147.29-8.18 147.29-8.68 151.94-7.5 150.04-7.55Q148.34-7.53 147.69-7.14 147.04-6.75 147.04-5.98L147.04-5.98 147.04-5.95Q147.04-5.13 147.96-4.7 148.89-4.28 151.11-4.03L151.11-4.03 157.04-3.43Q160.91-3.03 162.69-1.56 164.46-0.1 164.46 2.75L164.46 2.75 164.46 2.88Q164.46 5.15 163.11 6.6 161.76 8.05 159.29 8.71 156.81 9.38 153.36 9.38L153.36 9.38ZM152.99-10.3L152.99-10.3Q155.09-10.3 156.47-10.91 157.86-11.53 158.57-12.76 159.29-14 159.29-15.8L159.29-15.8 159.29-16.4Q159.29-18.15 158.6-19.38 157.91-20.6 156.54-21.24 155.16-21.88 153.09-21.88L153.09-21.88 152.94-21.88Q150.69-21.88 149.27-21.19 147.86-20.5 147.22-19.26 146.59-18.03 146.59-16.38L146.59-16.38 146.59-15.8Q146.59-14 147.3-12.78 148.01-11.55 149.44-10.93 150.86-10.3 152.99-10.3Z" opacity="1" transform="matrix(1,0,0,1,0,0)" fill="#6575a8" class="wordmark-text-0" data-fill-palette-color="primary" id="text-0"></path></svg></g></svg></g></svg></g></svg></g></svg></g></svg></g></svg></g><path d="M194.28 85.763L194.28 27.703 386.074 27.703 386.074 219.497 194.28 219.497 194.28 161.437 200.022 161.437 200.022 213.755 380.331 213.755 380.331 33.445 200.022 33.445 200.022 85.763Z" fill="#6575a8" stroke="transparent" data-fill-palette-color="tertiary"></path></svg></g><defs></defs></svg><rect width="395.52" height="247.2" fill="none" stroke="none" visibility="hidden"></rect></g></svg></g></svg>