<svg xmlns="http://www.w3.org/2000/svg" version="1.1" xmlns:xlink="http://www.w3.org/1999/xlink" xmlns:svgjs="http://svgjs.dev/svgjs" width="2000" height="292" viewBox="0 0 2000 292"><g transform="matrix(1,0,0,1,-1.2121212121212466,-1.6061962477623126)"><svg viewBox="0 0 396 58" data-background-color="#ffffff" preserveAspectRatio="xMidYMid meet" height="292" width="2000" xmlns="http://www.w3.org/2000/svg" xmlns:xlink="http://www.w3.org/1999/xlink"><g id="tight-bounds" transform="matrix(1,0,0,1,0.2400000000000091,0.31903898071990966)"><svg viewBox="0 0 395.52 57.36192203856016" height="57.36192203856016" width="395.52"><g><svg viewBox="0 0 395.52 57.36192203856016" height="57.36192203856016" width="395.52"><g><svg viewBox="0 0 506.37632483587777 73.43931853612519" height="57.36192203856016" width="395.52"><g><rect width="6.589884114392537" height="73.43931853612519" x="87.01543518642625" y="0" fill="#ffffff" opacity="1" stroke-width="0" stroke="transparent" fill-opacity="1" class="rect-yte-0" data-fill-palette-color="primary" rx="1%" id="yte-0" data-palette-color="#111111"></rect></g><g transform="matrix(1,0,0,1,110.85632483587777,0.18268487198040617)"><svg viewBox="0 0 395.52 73.07394879216437" height="73.07394879216437" width="395.52"><g id="textblocktransform"><svg viewBox="0 0 395.52 73.07394879216437" height="73.07394879216437" width="395.52" id="textblock"><g><svg viewBox="0 0 395.52 73.07394879216437" height="73.07394879216437" width="395.52"><g transform="matrix(1,0,0,1,0,0)"><svg width="395.52" viewBox="2.86 -32.03 227.53593502044677 42.04" height="73.07394879216437" data-palette-color="#111111"><g transform="matrix(1,0,0,1,0,0)"><g><svg width="14.62395668029785" viewBox="1.78 -36.36 74.21 36.36" height="7.1650390625" data-palette-color="#111111" id="scriptelement" x="215.77197834014893" y="-7.1650390625"><path d="M12.91-30.02L1.78-30.02 1.78-36.36 31.64-36.36 31.64-30.02 20.51-30.02 20.51 0 12.91 0 12.91-30.02ZM36.57 0L36.57-36.36 46.06-36.36 56.07-11.93 56.5-11.93 66.51-36.36 75.99-36.36 75.99 0 68.53 0 68.53-23.67 68.23-23.67 58.82-0.18 53.74-0.18 44.33-23.76 44.03-23.76 44.03 0 36.57 0Z" opacity="1" transform="matrix(1,0,0,1,0,0)" fill="#ffffff" class="undefined-123" data-fill-palette-color="primary" id="tk-123"></path></svg></g></g><path d="M11.18-29.52Q12.18-29.52 12.6-29.15 13.01-28.78 13.01-27.93L13.01-27.93 13.01-20.61 23.05-20.61Q23.88-20.61 24.23-20.23 24.58-19.85 24.58-18.95L24.58-18.95Q24.58-18.04 24.23-17.66 23.88-17.29 23.05-17.29L23.05-17.29 13.01-17.29 13.01-8.4Q13.01-5.62 13.98-4.32 14.94-3.03 17.33-3.03L17.33-3.03Q18.97-3.03 20.78-3.69 22.58-4.35 24.27-5.44L24.27-5.44Q24.61-5.69 25.02-5.69L25.02-5.69Q25.85-5.69 26.44-4.57L26.44-4.57Q26.76-3.93 26.76-3.47L26.76-3.47Q26.76-2.69 25.95-2.2L25.95-2.2Q24.05-1 21.7-0.23 19.36 0.54 17.33 0.54L17.33 0.54Q13.18 0.54 11.27-1.62 9.35-3.78 9.35-8.08L9.35-8.08 9.35-17.29 4.39-17.29Q3.56-17.29 3.21-17.66 2.86-18.04 2.86-18.95L2.86-18.95Q2.86-19.85 3.21-20.23 3.56-20.61 4.39-20.61L4.39-20.61 9.35-20.61 9.35-27.93Q9.35-28.78 9.77-29.15 10.18-29.52 11.18-29.52L11.18-29.52ZM37.77-32.03Q38.6-32.03 38.95-31.65 39.3-31.27 39.3-30.37L39.3-30.37 39.3-18.21Q40.89-20.58 42.98-21.84 45.07-23.1 47.48-23.1L47.48-23.1Q49.7-23.1 51.34-22.13 52.98-21.17 53.85-19.36 54.73-17.55 54.73-15.14L54.73-15.14 54.73-3.32 56.74-3.32Q57.57-3.32 57.92-2.94 58.27-2.56 58.27-1.66L58.27-1.66Q58.27-0.76 57.92-0.38 57.57 0 56.74 0L56.74 0 48.83 0Q48 0 47.64-0.38 47.29-0.76 47.29-1.66L47.29-1.66Q47.29-2.56 47.64-2.94 48-3.32 48.83-3.32L48.83-3.32 51.07-3.32 51.07-14.77Q51.07-16.94 50.07-18.21 49.07-19.48 47.12-19.48L47.12-19.48Q45.04-19.48 43.25-18.29 41.45-17.09 40.38-14.99 39.3-12.89 39.3-10.3L39.3-10.3 39.3-3.32 41.55-3.32Q42.38-3.32 42.73-2.94 43.09-2.56 43.09-1.66L43.09-1.66Q43.09-0.76 42.73-0.38 42.38 0 41.55 0L41.55 0 33.64 0Q32.81 0 32.46-0.38 32.1-0.76 32.1-1.66L32.1-1.66Q32.1-2.56 32.46-2.94 32.81-3.32 33.64-3.32L33.64-3.32 35.64-3.32 35.64-28.71 33.4-28.71Q32.57-28.71 32.21-29.09 31.86-29.47 31.86-30.37L31.86-30.37Q31.86-31.27 32.21-31.65 32.57-32.03 33.4-32.03L33.4-32.03 37.77-32.03ZM75.17-23.1Q78.71-23.1 81.21-21.67 83.71-20.24 85.05-17.71 86.4-15.19 86.59-11.89L86.59-11.89Q86.59-11.06 86.24-10.72 85.88-10.38 85.05-10.38L85.05-10.38 67.38-10.38Q67.55-6.74 69.54-4.87 71.53-3 75.17-3L75.17-3Q77.41-3 79.61-3.58 81.81-4.15 83.47-5.1L83.47-5.1Q83.88-5.32 84.22-5.32L84.22-5.32Q85.08-5.32 85.62-4.03L85.62-4.03Q85.83-3.52 85.83-3.1L85.83-3.1Q85.83-2.12 84.76-1.59L84.76-1.59Q82.88-0.63 80.32-0.05 77.75 0.54 75.17 0.54L75.17 0.54Q71.48 0.54 68.87-0.88 66.25-2.29 64.89-4.96 63.52-7.62 63.52-11.28L63.52-11.28Q63.52-14.77 65.01-17.46 66.5-20.14 69.14-21.62 71.77-23.1 75.17-23.1L75.17-23.1ZM75.17-19.56Q72.16-19.56 70.2-18.03 68.23-16.5 67.62-13.79L67.62-13.79 82.54-13.79Q82.03-16.6 80.18-18.08 78.34-19.56 75.17-19.56L75.17-19.56ZM96.99-32.03Q97.82-32.03 98.17-31.65 98.53-31.27 98.53-30.37L98.53-30.37 98.53-19.07Q101.68-23.1 106.27-23.1L106.27-23.1Q109.29-23.1 111.69-21.67 114.08-20.24 115.45-17.57 116.81-14.89 116.81-11.28L116.81-11.28Q116.81-7.67 115.45-4.99 114.08-2.32 111.69-0.89 109.29 0.54 106.27 0.54L106.27 0.54Q103.87 0.54 101.85-0.54 99.82-1.61 98.28-3.61L98.28-3.61 98.28-1.66Q98.28-0.76 97.93-0.38 97.58 0 96.75 0L96.75 0 92.86 0Q92.03 0 91.68-0.38 91.33-0.76 91.33-1.66L91.33-1.66Q91.33-2.56 91.68-2.94 92.03-3.32 92.86-3.32L92.86-3.32 94.87-3.32 94.87-28.71 92.38-28.71Q91.55-28.71 91.19-29.09 90.84-29.47 90.84-30.37L90.84-30.37Q90.84-31.27 91.19-31.65 91.55-32.03 92.38-32.03L92.38-32.03 96.99-32.03ZM106.02-19.48Q103.85-19.48 102.15-18.51 100.46-17.53 99.49-15.67 98.53-13.82 98.53-11.28L98.53-11.28Q98.53-8.74 99.49-6.88 100.46-5.03 102.15-4.05 103.85-3.08 106.02-3.08L106.02-3.08Q108.2-3.08 109.76-4.11 111.32-5.15 112.14-7.01 112.96-8.86 112.96-11.28L112.96-11.28Q112.96-13.7 112.14-15.55 111.32-17.41 109.76-18.44 108.2-19.48 106.02-19.48L106.02-19.48ZM135.54-32.03Q136.37-32.03 136.72-31.65 137.07-31.27 137.07-30.37L137.07-30.37 137.07-3.32 144.91-3.32Q145.74-3.32 146.1-2.94 146.45-2.56 146.45-1.66L146.45-1.66Q146.45-0.76 146.1-0.38 145.74 0 144.91 0L144.91 0 125.77 0Q124.94 0 124.59-0.38 124.23-0.76 124.23-1.66L124.23-1.66Q124.23-2.56 124.59-2.94 124.94-3.32 125.77-3.32L125.77-3.32 133.41-3.32 133.41-28.71 126.75-28.71Q125.92-28.71 125.56-29.09 125.21-29.47 125.21-30.37L125.21-30.37Q125.21-31.27 125.56-31.65 125.92-32.03 126.75-32.03L126.75-32.03 135.54-32.03ZM164.88-23.1Q168.22-23.1 170.91-21.58 173.6-20.07 175.12-17.37 176.65-14.67 176.65-11.28L176.65-11.28Q176.65-7.89 175.12-5.19 173.6-2.49 170.91-0.98 168.22 0.54 164.88 0.54L164.88 0.54Q161.54 0.54 158.85-0.98 156.16-2.49 154.64-5.19 153.11-7.89 153.11-11.28L153.11-11.28Q153.11-14.67 154.64-17.37 156.16-20.07 158.85-21.58 161.54-23.1 164.88-23.1L164.88-23.1ZM164.88-19.48Q162.51-19.48 160.72-18.44 158.92-17.41 157.95-15.54 156.97-13.67 156.97-11.28L156.97-11.28Q156.97-8.89 157.95-7.02 158.92-5.15 160.72-4.11 162.51-3.08 164.88-3.08L164.88-3.08Q167.25-3.08 169.04-4.11 170.84-5.15 171.81-7.02 172.79-8.89 172.79-11.28L172.79-11.28Q172.79-13.67 171.81-15.54 170.84-17.41 169.04-18.44 167.25-19.48 164.88-19.48L164.88-19.48ZM193.52-23.1Q195.91-23.1 197.93-22.02 199.96-20.95 201.5-18.95L201.5-18.95 201.5-20.9Q201.5-21.8 201.85-22.18 202.21-22.56 203.04-22.56L203.04-22.56 206.92-22.56Q207.75-22.56 208.1-22.18 208.46-21.8 208.46-20.9L208.46-20.9Q208.46-20 208.1-19.62 207.75-19.24 206.92-19.24L206.92-19.24 204.92-19.24 204.92 0.73Q204.92 3.64 203.68 5.73 202.45 7.81 200.11 8.91 197.76 10.01 194.47 10.01L194.47 10.01Q192.12 10.01 189.73 9.61 187.34 9.2 185.26 8.45L185.26 8.45Q184.31 8.11 184.31 7.15L184.31 7.15Q184.31 6.76 184.51 6.18L184.51 6.18Q184.95 4.83 185.9 4.83L185.9 4.83Q186.17 4.83 186.44 4.93L186.44 4.93Q188.34 5.62 190.44 6.01 192.54 6.4 194.47 6.4L194.47 6.4Q197.84 6.4 199.55 4.8 201.25 3.2 201.25 0.42L201.25 0.42 201.25-4.49Q198.23-0.68 193.52-0.68L193.52-0.68Q190.49-0.68 188.1-2.04 185.7-3.39 184.34-5.93 182.97-8.47 182.97-11.89L182.97-11.89Q182.97-15.31 184.34-17.85 185.7-20.39 188.1-21.74 190.49-23.1 193.52-23.1L193.52-23.1ZM193.76-19.48Q191.59-19.48 190.02-18.52 188.46-17.55 187.64-15.83 186.83-14.11 186.83-11.89L186.83-11.89Q186.83-9.67 187.64-7.95 188.46-6.23 190.02-5.26 191.59-4.3 193.76-4.3L193.76-4.3Q195.93-4.3 197.63-5.2 199.33-6.1 200.29-7.82 201.25-9.55 201.25-11.89L201.25-11.89Q201.25-14.23 200.29-15.95 199.33-17.68 197.63-18.58 195.93-19.48 193.76-19.48L193.76-19.48Z" opacity="1" transform="matrix(1,0,0,1,0,0)" fill="#ffffff" class="wordmark-text-0" data-fill-palette-color="primary" id="text-0"></path></svg></g></svg></g></svg></g></svg></g><g transform="matrix(1,0,0,1,0,0.18268487198040617)"><svg viewBox="0 0 69.76442965136725 73.07394879216437" height="73.07394879216437" width="69.76442965136725"><g><svg version="1.0" xmlns="http://www.w3.org/2000/svg" xmlns:xlink="http://www.w3.org/1999/xlink" x="0" y="0" viewBox="0 0 95.471 100" enable-background="new 0 0 95.471 100" xml:space="preserve" id="icon-0" width="69.76442965136725" height="73.07394879216437" class="icon-icon-0" data-fill-palette-color="accent"><path d="M47.735 0C47.652 2.825 45.997 13.412 27.936 30.934 10.554 47.797 2.439 49.824 0 50 2.439 50.178 10.554 52.204 27.936 69.066 45.997 86.589 47.652 97.177 47.735 100 47.818 97.177 49.474 86.589 67.533 69.066 84.917 52.204 93.031 50.178 95.471 50 93.032 49.824 84.917 47.797 67.533 30.934 49.475 13.412 47.819 2.825 47.735 0" fill="#ffffff" data-fill-palette-color="accent"></path></svg></g></svg></g></svg></g></svg></g><defs></defs></svg><rect width="395.52" height="57.36192203856016" fill="none" stroke="none" visibility="hidden"></rect></g></svg></g></svg>